<svg width="29" height="29" viewBox="0 0 29 29" fill="none" xmlns="http://www.w3.org/2000/svg">
<g filter="url(#filter0_d_1:1336)">
<path d="M14.0916 0.854004C12.1137 0.854004 10.1803 1.44049 8.53585 2.53931C6.89136 3.63812 5.60964 5.19991 4.85276 7.02717C4.09589 8.85443 3.89785 10.8651 4.2837 12.8049C4.66956 14.7447 5.62196 16.5265 7.02049 17.9251C8.41901 19.3236 10.2008 20.276 12.1407 20.6619C14.0805 21.0477 16.0911 20.8497 17.9184 20.0928C19.7457 19.3359 21.3074 18.0542 22.4063 16.4097C23.5051 14.7652 24.0916 12.8318 24.0916 10.854C24.0916 9.54078 23.8329 8.24043 23.3304 7.02717C22.8278 5.81391 22.0912 4.71152 21.1626 3.78294C20.234 2.85435 19.1316 2.11776 17.9184 1.61521C16.7051 1.11266 15.4048 0.854004 14.0916 0.854004ZM14.0916 18.854C12.5093 18.854 10.9626 18.3848 9.647 17.5058C8.3314 16.6267 7.30602 15.3773 6.70052 13.9155C6.09502 12.4537 5.93659 10.8451 6.24528 9.29328C6.55396 7.74143 7.31588 6.31597 8.4347 5.19715C9.55352 4.07833 10.979 3.3164 12.5308 3.00772C14.0827 2.69904 15.6912 2.85747 17.153 3.46297C18.6148 4.06847 19.8643 5.09385 20.7433 6.40944C21.6224 7.72504 22.0916 9.27175 22.0916 10.854C22.0916 12.9757 21.2487 15.0106 19.7484 16.5109C18.2481 18.0112 16.2133 18.854 14.0916 18.854Z" fill="#181725"/>
<path d="M14.3091 4.85407C13.3808 4.85407 12.4906 5.22282 11.8342 5.8792C11.1778 6.53557 10.8091 7.42581 10.8091 8.35407C10.8091 8.61929 10.9144 8.87364 11.102 9.06118C11.2895 9.24871 11.5439 9.35407 11.8091 9.35407C12.0743 9.35407 12.3287 9.24871 12.5162 9.06118C12.7037 8.87364 12.8091 8.61929 12.8091 8.35407C12.8091 8.0574 12.8971 7.76739 13.0619 7.52072C13.2267 7.27404 13.461 7.08178 13.7351 6.96825C14.0091 6.85472 14.3107 6.82502 14.6017 6.88289C14.8927 6.94077 15.16 7.08363 15.3697 7.29341C15.5795 7.50319 15.7224 7.77046 15.7803 8.06144C15.8381 8.35241 15.8084 8.65401 15.6949 8.9281C15.5814 9.20219 15.3891 9.43645 15.1424 9.60128C14.8958 9.7661 14.6058 9.85407 14.3091 9.85407C14.0439 9.85407 13.7895 9.95943 13.602 10.147C13.4144 10.3345 13.3091 10.5889 13.3091 10.8541V12.8541C13.3091 13.1193 13.4144 13.3736 13.602 13.5612C13.7895 13.7487 14.0439 13.8541 14.3091 13.8541C14.5743 13.8541 14.8287 13.7487 15.0162 13.5612C15.2037 13.3736 15.3091 13.1193 15.3091 12.8541V11.6941C16.1172 11.4581 16.8127 10.9379 17.2676 10.2295C17.7224 9.52109 17.9058 8.67214 17.784 7.83914C17.6622 7.00613 17.2435 6.24523 16.6049 5.69666C15.9663 5.1481 15.1509 4.84885 14.3091 4.85407Z" fill="#181725"/>
<path d="M14.3091 16.854C14.8614 16.854 15.3091 16.4063 15.3091 15.854C15.3091 15.3017 14.8614 14.854 14.3091 14.854C13.7568 14.854 13.3091 15.3017 13.3091 15.854C13.3091 16.4063 13.7568 16.854 14.3091 16.854Z" fill="#181725"/>
</g>
<defs>
<filter id="filter0_d_1:1336" x="0.0915527" y="0.854004" width="28" height="28" filterUnits="userSpaceOnUse" color-interpolation-filters="sRGB">
<feFlood flood-opacity="0" result="BackgroundImageFix"/>
<feColorMatrix in="SourceAlpha" type="matrix" values="0 0 0 0 0 0 0 0 0 0 0 0 0 0 0 0 0 0 127 0" result="hardAlpha"/>
<feOffset dy="4"/>
<feGaussianBlur stdDeviation="2"/>
<feComposite in2="hardAlpha" operator="out"/>
<feColorMatrix type="matrix" values="0 0 0 0 0 0 0 0 0 0 0 0 0 0 0 0 0 0 0.25 0"/>
<feBlend mode="normal" in2="BackgroundImageFix" result="effect1_dropShadow_1:1336"/>
<feBlend mode="normal" in="SourceGraphic" in2="effect1_dropShadow_1:1336" result="shape"/>
</filter>
</defs>
</svg>
