<svg width="21" height="21" viewBox="0 0 21 21" fill="none" xmlns="http://www.w3.org/2000/svg">
<path d="M7.98804 7.58781C8.51804 8.06281 9.22004 8.35181 9.98804 8.35181H11.988C12.7262 8.35283 13.4386 8.08069 13.988 7.58781H7.98804ZM7.98804 7.58781C7.43858 8.08069 6.72617 8.35283 5.98804 8.35181L7.98804 7.58781ZM7.03804 2.35181V2.30181H6.98804H3.98804C3.70956 2.30181 3.44249 2.41243 3.24558 2.60934C3.04866 2.80626 2.93804 3.07333 2.93804 3.35181V5.35181C2.93804 5.63028 3.04866 5.89736 3.24558 6.09427C3.44249 6.29118 3.70956 6.40181 3.98804 6.40181H5.98804C6.26652 6.40181 6.53359 6.29118 6.7305 6.09427C6.92741 5.89736 7.03804 5.63028 7.03804 5.35181V2.35181ZM3.99804 8.30181H3.94804V8.35181V18.3168V18.3668H3.99804H5.98804H6.03804V18.3168V13.3518C6.03804 12.8346 6.24349 12.3386 6.60918 11.9729C6.97488 11.6073 7.47087 11.4018 7.98804 11.4018H9.98804C10.5052 11.4018 11.0012 11.6073 11.3669 11.9729C11.7326 12.3386 11.938 12.8346 11.938 13.3518V18.3168V18.3668H11.988H18.001H18.051V18.3168V8.35181V8.30181H18.001H15.988C15.2328 8.30181 14.5426 8.01765 14.0214 7.55057L13.988 7.52065L13.9547 7.55059C13.4144 8.03522 12.7139 8.30281 11.9881 8.30181H11.988H9.98804C9.2328 8.30181 8.54257 8.01765 8.02141 7.55057L7.98803 7.52065L7.95465 7.55059C7.41438 8.03522 6.71389 8.30281 5.98811 8.30181H5.98804H3.99804ZM1.99621 7.52893C1.69977 7.25816 1.46174 6.92947 1.29694 6.56299C1.12571 6.18222 1.03746 5.76938 1.03804 5.35188V5.35181V3.35181C1.03804 2.56942 1.34884 1.81907 1.90207 1.26584C2.45531 0.712609 3.20565 0.401807 3.98804 0.401807H17.988C18.7704 0.401807 19.5208 0.712609 20.074 1.26584C20.6272 1.81907 20.938 2.56942 20.938 3.35181V5.35181C20.938 6.21914 20.5644 6.99984 19.9675 7.53972L19.951 7.55461V7.57681V18.3168C19.951 18.834 19.7456 19.33 19.3799 19.6957C19.0142 20.0614 18.5182 20.2668 18.001 20.2668H10.361V20.2659L10.3517 20.2677C10.2318 20.2904 10.1101 20.3018 9.98803 20.3018H7.98804C7.86601 20.3018 7.74424 20.2904 7.62433 20.2677L7.6245 20.2668H7.61504H3.99904C3.48187 20.2668 2.98588 20.0614 2.62018 19.6957C2.25449 19.33 2.04904 18.834 2.04904 18.3168V7.59681V7.47611L1.99621 7.52893ZM10.038 13.3518V13.3018H9.98804H7.98804H7.93804V13.3518V18.3168V18.3668H7.98804H9.98804V18.3178H10.038V18.3168V18.2668V13.3518ZM13.038 2.35181V2.30181H12.988H8.98804H8.93804V2.35181V5.35181C8.93804 5.63028 9.04867 5.89736 9.24558 6.09427C9.44249 6.29118 9.70956 6.40181 9.98804 6.40181H11.988C12.2665 6.40181 12.5336 6.29118 12.7305 6.09427C12.9274 5.89736 13.038 5.63028 13.038 5.35181V2.35181ZM14.988 2.30181H14.938V2.35181V5.35181C14.938 5.63028 15.0487 5.89736 15.2456 6.09427C15.4425 6.29118 15.7096 6.40181 15.988 6.40181H17.988C18.2665 6.40181 18.5336 6.29118 18.7305 6.09427C18.9274 5.89736 19.038 5.63028 19.038 5.35181V3.35181C19.038 3.07333 18.9274 2.80626 18.7305 2.60934C18.5336 2.41243 18.2665 2.30181 17.988 2.30181H14.988ZM14.988 11.4018H15.988C16.24 11.4018 16.4816 11.5019 16.6598 11.6801C16.838 11.8582 16.938 12.0999 16.938 12.3518V15.3518C16.938 15.6038 16.838 15.8454 16.6598 16.0236C16.4816 16.2017 16.24 16.3018 15.988 16.3018H14.988C14.7361 16.3018 14.4944 16.2017 14.3163 16.0236C14.1381 15.8454 14.038 15.6038 14.038 15.3518V12.3518C14.038 12.0999 14.1381 11.8582 14.3163 11.6801C14.4944 11.5019 14.7361 11.4018 14.988 11.4018Z" fill="#181725" stroke="white" stroke-width="0.1"/>
</svg>
